<?xml version="1.0" encoding="UTF-8" standalone="no"?>
<!DOCTYPE svg PUBLIC "-//W3C//DTD SVG 1.1//EN"
 "http://www.w3.org/Graphics/SVG/1.1/DTD/svg11.dtd">
<!-- Generated by graphviz version 12.2.1 (20241206.2353)
 -->
<!-- Title: pastafarianism Pages: 1 -->
<svg width="206pt" height="116pt"
 viewBox="0.00 0.00 206.50 116.00" xmlns="http://www.w3.org/2000/svg" xmlns:xlink="http://www.w3.org/1999/xlink">
<g id="graph0" class="graph" transform="scale(1 1) rotate(0) translate(4 112)">
<title>pastafarianism</title>
<polygon fill="white" stroke="none" points="-4,4 -4,-112 202.5,-112 202.5,4 -4,4"/>
<!-- Sequence -->
<g id="node1" class="node">
<title>Sequence</title>
<polygon fill="orange" stroke="black" points="133.12,-108 65.37,-108 65.37,-72 133.12,-72 133.12,-108"/>
<text text-anchor="middle" x="99.25" y="-87.08" font-family="Times New Roman,serif" font-size="9.00">Ⓜ Sequence</text>
</g>
<!-- Action 1 -->
<g id="node2" class="node">
<title>Action 1</title>
<ellipse fill="gray" stroke="black" cx="27.25" cy="-18" rx="27.25" ry="18"/>
<text text-anchor="middle" x="27.25" y="-14.7" font-family="Times New Roman,serif" font-size="9.00">Action 1</text>
</g>
<!-- Sequence&#45;&gt;Action 1 -->
<g id="edge1" class="edge">
<title>Sequence&#45;&gt;Action 1</title>
<path fill="none" stroke="black" d="M81.45,-71.7C71.95,-62.46 60.16,-50.99 50,-41.12"/>
<polygon fill="black" stroke="black" points="52.63,-38.8 43.02,-34.33 47.75,-43.81 52.63,-38.8"/>
</g>
<!-- Action 2 -->
<g id="node3" class="node">
<title>Action 2</title>
<ellipse fill="gray" stroke="black" cx="99.25" cy="-18" rx="27.25" ry="18"/>
<text text-anchor="middle" x="99.25" y="-14.7" font-family="Times New Roman,serif" font-size="9.00">Action 2</text>
</g>
<!-- Sequence&#45;&gt;Action 2 -->
<g id="edge2" class="edge">
<title>Sequence&#45;&gt;Action 2</title>
<path fill="none" stroke="black" d="M99.25,-71.7C99.25,-64.41 99.25,-55.73 99.25,-47.54"/>
<polygon fill="black" stroke="black" points="102.75,-47.62 99.25,-37.62 95.75,-47.62 102.75,-47.62"/>
</g>
<!-- Action 3 -->
<g id="node4" class="node">
<title>Action 3</title>
<ellipse fill="gray" stroke="black" cx="171.25" cy="-18" rx="27.25" ry="18"/>
<text text-anchor="middle" x="171.25" y="-14.7" font-family="Times New Roman,serif" font-size="9.00">Action 3</text>
</g>
<!-- Sequence&#45;&gt;Action 3 -->
<g id="edge3" class="edge">
<title>Sequence&#45;&gt;Action 3</title>
<path fill="none" stroke="black" d="M117.05,-71.7C126.55,-62.46 138.34,-50.99 148.5,-41.12"/>
<polygon fill="black" stroke="black" points="150.75,-43.81 155.48,-34.33 145.87,-38.8 150.75,-43.81"/>
</g>
</g>
</svg>
